<svg width="149" height="64" viewBox="0 0 149 64" fill="none" xmlns="http://www.w3.org/2000/svg">
<path d="M77.7109 7.59888H81.853C83.504 7.59888 84.525 8.49708 84.525 9.90254C84.525 10.9623 84.0565 11.8379 82.9968 12.1319V12.1577C84.021 12.3548 84.2278 13.1076 84.315 13.9703C84.3893 14.833 84.3408 15.7958 84.8319 16.3967H83.5266C83.1939 16.0381 83.378 15.0914 83.2068 14.2288C83.084 13.3661 82.874 12.6392 81.7399 12.6392H78.8805V16.3935H77.7109V7.59888ZM81.3199 11.6505C82.4152 11.6505 83.3522 11.3662 83.3522 10.0867C83.3522 9.22404 82.8837 8.58432 81.7884 8.58432H78.8805V11.6537H81.3199V11.6505Z" fill="#60269E"/>
<path d="M90.9198 14.3742C90.6355 15.7797 89.6242 16.5422 88.1961 16.5422C86.1639 16.5422 85.201 15.1367 85.1396 13.1917C85.1396 11.2822 86.3965 9.87671 88.1347 9.87671C90.3899 9.87671 91.0781 11.9833 91.0167 13.5244H86.2511C86.2156 14.6327 86.8424 15.6181 88.2349 15.6181C89.0976 15.6181 89.7017 15.1981 89.8859 14.3742H90.9198ZM89.9085 12.6004C89.8601 11.602 89.1072 10.8008 88.0733 10.8008C86.9781 10.8008 86.3222 11.6279 86.2511 12.6004H89.9085Z" fill="#60269E"/>
<path d="M97.304 16.3935H96.2571V15.5309H96.2345C95.8888 16.232 95.0746 16.5421 94.2023 16.5421C92.2443 16.5421 91.2686 14.9881 91.2686 13.1916C91.2686 11.392 92.2314 9.87669 94.1764 9.87669C94.8291 9.87669 95.766 10.1222 96.2345 10.8751H96.2571V7.59888H97.304V16.3935ZM94.3444 15.6181C95.7499 15.6181 96.2927 14.4097 96.2927 13.2143C96.2927 11.9574 95.7273 10.8007 94.283 10.8007C92.8517 10.8007 92.3735 12.0188 92.3735 13.266C92.3735 14.4614 92.9906 15.6181 94.3444 15.6181Z" fill="#60269E"/>
<path d="M101.53 7.59888H104.548C107.259 7.59888 108.774 8.95264 108.774 11.7894C108.774 14.7328 107.482 16.3967 104.548 16.3967H101.53V7.59888ZM102.7 15.4081H104.648C105.449 15.4081 107.604 15.1851 107.604 11.9445C107.604 9.85085 106.829 8.58108 104.671 8.58108H102.7V15.4081Z" fill="#60269E"/>
<path d="M110.647 8.87815H109.601V7.59546H110.647V8.87815ZM109.601 10.0251H110.647V16.3933H109.601V10.0251Z" fill="#60269E"/>
<path d="M112.421 14.3871C112.46 15.324 113.271 15.6213 114.133 15.6213C114.786 15.6213 115.674 15.4727 115.674 14.6714C115.674 13.8572 114.641 13.7247 113.594 13.4889C112.56 13.253 111.51 12.9105 111.51 11.6892C111.51 10.4065 112.779 9.87988 113.888 9.87988C115.293 9.87988 116.414 10.3225 116.502 11.8766H115.455C115.38 11.0624 114.666 10.8039 113.975 10.8039C113.348 10.8039 112.618 10.9752 112.618 11.6181C112.618 12.3709 113.726 12.4937 114.702 12.7263C115.749 12.959 116.783 13.3047 116.783 14.5389C116.783 16.0542 115.367 16.5486 114.072 16.5486C112.644 16.5486 111.435 15.9702 111.374 14.3903H112.421V14.3871Z" fill="#60269E"/>
<path d="M118.903 10.0252H120.173V10.9493H118.903V14.9039C118.903 15.3854 119.039 15.4694 119.691 15.4694H120.173V16.3934H119.371C118.289 16.3934 117.856 16.1705 117.856 15.0009V10.9493H116.771V10.0252H117.856V8.11572H118.903V10.0252Z" fill="#60269E"/>
<path d="M120.803 10.0252H121.788V11.3692H121.814C122.318 10.345 123.022 9.84099 124.156 9.87976V10.988C122.467 10.988 121.853 11.9476 121.853 13.563V16.3934H120.806V10.0252H120.803Z" fill="#60269E"/>
<path d="M125.559 8.87815H124.512V7.59546H125.559V8.87815ZM124.512 10.0251H125.559V16.3933H124.512V10.0251Z" fill="#60269E"/>
<path d="M128.147 10.0252H129.417V10.9493H128.147V14.9039C128.147 15.3854 128.282 15.4694 128.935 15.4694H129.417V16.3934H128.615C127.53 16.3934 127.1 16.1705 127.1 15.0009V10.9493H126.018V10.0252H127.1V8.11572H128.147V10.0252Z" fill="#60269E"/>
<path d="M135.723 16.3709C135.538 16.4808 135.303 16.5422 134.97 16.5422C134.427 16.5422 134.081 16.2449 134.081 15.5567C133.503 16.2352 132.724 16.5422 131.839 16.5422C130.679 16.5422 129.732 16.0252 129.732 14.7554C129.732 13.3144 130.805 13.0043 131.887 12.7975C133.047 12.5746 134.033 12.6489 134.033 11.8605C134.033 10.9494 133.28 10.8008 132.618 10.8008C131.729 10.8008 131.076 11.0722 131.028 12.0091H129.981C130.043 10.4324 131.264 9.87671 132.679 9.87671C133.826 9.87671 135.07 10.1352 135.07 11.6247V14.9008C135.07 15.3952 135.07 15.6149 135.403 15.6149C135.49 15.6149 135.587 15.6019 135.723 15.5535V16.3709ZM134.023 13.1044C133.616 13.4017 132.828 13.4114 132.127 13.5374C131.435 13.6601 130.844 13.9057 130.844 14.6844C130.844 15.3758 131.435 15.6213 132.075 15.6213C133.454 15.6213 134.023 14.7587 134.023 14.1803V13.1044Z" fill="#60269E"/>
<path d="M137.312 7.59888H136.266V16.3967H137.312V7.59888Z" fill="#60269E"/>
<path d="M83.23 29.5984H82.1832V28.7357H82.1574C81.8117 29.4369 81.0007 29.747 80.1251 29.747C78.1672 29.747 77.1914 28.1929 77.1914 26.3965C77.1914 24.5969 78.151 23.0816 80.0993 23.0816C80.7519 23.0816 81.6889 23.3271 82.1574 24.0799H82.1832V20.8005H83.23V29.5984ZM80.2737 28.8197C81.6792 28.8197 82.222 27.6114 82.222 26.4159C82.222 25.1591 81.6566 24.0024 80.2123 24.0024C78.7843 24.0024 78.3029 25.2205 78.3029 26.4676C78.3029 27.6631 78.9167 28.8197 80.2737 28.8197Z" fill="#60269E"/>
<path d="M89.7851 27.5756C89.5007 28.9811 88.4894 29.7436 87.0614 29.7436C85.0291 29.7436 84.0663 28.3381 84.0049 26.3931C84.0049 24.4836 85.2617 23.0781 87 23.0781C89.2552 23.0781 89.9434 25.1847 89.882 26.7259H85.1131C85.0776 27.8341 85.7044 28.8195 87.0969 28.8195C87.9596 28.8195 88.5637 28.3995 88.7479 27.5756H89.7851ZM88.7738 25.8018C88.7253 24.8035 87.9725 24.0022 86.9386 24.0022C85.8433 24.0022 85.1906 24.8293 85.1163 25.8018H88.7738Z" fill="#60269E"/>
<path d="M93.582 20.8005H96.7742C97.5496 20.8005 98.5738 20.8005 99.1037 21.1204C99.6821 21.4661 100.138 22.0929 100.138 22.9556C100.138 23.8926 99.6465 24.5937 98.8323 24.9265V24.9523C99.9179 25.1752 100.509 25.9862 100.509 27.0718C100.509 28.3674 99.5851 29.5984 97.834 29.5984H93.582V20.8005ZM94.7516 24.5807H97.0941C98.4252 24.5807 98.968 24.0993 98.968 23.1753C98.968 21.9572 98.1054 21.7827 97.0941 21.7827H94.7516V24.5807ZM94.7516 28.613H97.6853C98.6966 28.613 99.3363 27.9959 99.3363 27.0363C99.3363 25.8893 98.4123 25.5694 97.4269 25.5694H94.7516V28.613Z" fill="#60269E"/>
<path d="M102.467 22.0798H101.42V20.7971H102.467V22.0798ZM101.42 23.2268H102.467V29.5982H101.42V23.2268Z" fill="#60269E"/>
<path d="M103.637 20.8005H104.684V24.0896H104.709C105.055 23.3885 105.866 23.0784 106.742 23.0784C108.7 23.0784 109.675 24.6292 109.675 26.4288C109.675 28.2285 108.716 29.7438 106.768 29.7438C106.115 29.7438 105.178 29.4982 104.709 28.7454H104.684V29.5952H103.637V20.8005ZM106.593 24.0024C105.188 24.0024 104.645 25.2108 104.645 26.4062C104.645 27.6631 105.213 28.8197 106.654 28.8197C108.083 28.8197 108.564 27.5985 108.564 26.3545C108.567 25.1623 107.95 24.0024 106.593 24.0024Z" fill="#60269E"/>
<path d="M111.523 20.8005H110.477V29.5984H111.523V20.8005Z" fill="#60269E"/>
<path d="M113.766 22.0798H112.719V20.7971H113.766V22.0798ZM112.719 23.2268H113.766V29.5982H112.719V23.2268Z" fill="#60269E"/>
<path d="M117.646 23.0781C119.665 23.0781 120.738 24.545 120.738 26.4189C120.738 28.28 119.665 29.7468 117.646 29.7468C115.623 29.7468 114.554 28.28 114.554 26.4189C114.554 24.545 115.626 23.0781 117.646 23.0781ZM117.646 28.8195C118.741 28.8195 119.63 27.9569 119.63 26.4157C119.63 24.8648 118.741 24.0022 117.646 24.0022C116.547 24.0022 115.662 24.8648 115.662 26.4157C115.662 27.9569 116.55 28.8195 117.646 28.8195Z" fill="#60269E"/>
<path d="M122.931 23.2269H124.201V24.1509H122.931V28.1056C122.931 28.587 123.067 28.671 123.72 28.671H124.201V29.5951H123.4C122.314 29.5951 121.884 29.3721 121.884 28.2025V24.1509H120.799V23.2269H121.884V21.3174H122.931V23.2269Z" fill="#60269E"/>
<path d="M130.302 27.5756C130.017 28.9811 129.006 29.7436 127.578 29.7436C125.546 29.7436 124.583 28.3381 124.521 26.3931C124.521 24.4836 125.778 23.0781 127.517 23.0781C129.772 23.0781 130.46 25.1847 130.399 26.7259H125.63C125.594 27.8341 126.221 28.8195 127.614 28.8195C128.476 28.8195 129.08 28.3995 129.265 27.5756H130.302ZM129.29 25.8018C129.242 24.8035 128.489 24.0022 127.455 24.0022C126.36 24.0022 125.704 24.8293 125.633 25.8018H129.29Z" fill="#60269E"/>
<path d="M135.316 25.2719C135.154 24.4707 134.601 24.0022 133.739 24.0022C132.223 24.0022 131.755 25.1976 131.755 26.49C131.755 27.6596 132.285 28.8195 133.616 28.8195C134.627 28.8195 135.228 28.2283 135.364 27.2654H136.437C136.204 28.8195 135.228 29.7436 133.626 29.7436C131.677 29.7436 130.644 28.3866 130.644 26.49C130.644 24.5805 131.629 23.0781 133.648 23.0781C135.089 23.0781 136.249 23.7566 136.398 25.2719H135.316Z" fill="#60269E"/>
<path d="M142.76 29.5723C142.576 29.6822 142.34 29.7436 142.007 29.7436C141.464 29.7436 141.118 29.4463 141.118 28.7581C140.54 29.4366 139.765 29.7436 138.876 29.7436C137.716 29.7436 136.77 29.2266 136.77 27.9569C136.77 26.5159 137.842 26.2057 138.925 25.9989C140.084 25.776 141.07 25.8503 141.07 25.0619C141.07 24.1508 140.317 24.0022 139.652 24.0022C138.763 24.0022 138.11 24.2736 138.062 25.2106H137.015C137.076 23.6338 138.298 23.0781 139.713 23.0781C140.86 23.0781 142.104 23.3366 142.104 24.8261V28.1022C142.104 28.5966 142.104 28.8163 142.437 28.8163C142.524 28.8163 142.621 28.8034 142.756 28.7549V29.5723H142.76ZM141.06 26.3058C140.653 26.6031 139.865 26.6128 139.164 26.7388C138.472 26.8616 137.881 27.1071 137.881 27.8858C137.881 28.5772 138.472 28.8228 139.112 28.8228C140.492 28.8228 141.06 27.9601 141.06 27.3817V26.3058Z" fill="#60269E"/>
<path d="M143.881 27.5887C143.92 28.5257 144.731 28.8229 145.594 28.8229C146.246 28.8229 147.135 28.6743 147.135 27.873C147.135 27.0588 146.101 26.9264 145.051 26.6905C144.017 26.4547 142.967 26.1122 142.967 24.8909C142.967 23.6082 144.237 23.0815 145.345 23.0815C146.75 23.0815 147.871 23.5242 147.959 25.0783H146.912C146.837 24.2641 146.123 24.0056 145.432 24.0056C144.805 24.0056 144.075 24.1768 144.075 24.8198C144.075 25.5726 145.183 25.6954 146.159 25.928C147.206 26.1606 148.24 26.5063 148.24 27.7406C148.24 29.2559 146.821 29.7502 145.529 29.7502C144.101 29.7502 142.892 29.1719 142.831 27.5919H143.881V27.5887Z" fill="#60269E"/>
<path d="M77.7109 34.002H81.5687C83.3166 34.002 84.2665 34.9745 84.2665 36.6029C84.2665 38.228 83.3166 39.2135 81.5687 39.2038H78.8838V42.8031H77.7142V34.002H77.7109ZM78.8805 38.2151H81.1713C82.4895 38.228 83.0937 37.6497 83.0937 36.5996C83.0937 35.5528 82.4895 34.9842 81.1713 34.9842H78.8805V38.2151Z" fill="#60269E"/>
<path d="M90.3025 42.7999H89.3171V41.7886H89.2912C88.8486 42.5769 88.1313 42.9453 87.2202 42.9453C85.5433 42.9453 85.0264 41.9857 85.0264 40.6158V36.4252H86.0732V40.7385C86.0732 41.514 86.5643 42.0212 87.3656 42.0212C88.6353 42.0212 89.2525 41.1715 89.2525 40.0245V36.4252H90.2993V42.7999H90.3025ZM87.9762 33.792H89.3203L87.7048 35.5529H86.9165L87.9762 33.792Z" fill="#60269E"/>
<path d="M91.4238 34.002H92.4707V37.2911H92.4965C92.8422 36.5899 93.6564 36.2798 94.5288 36.2798C96.4867 36.2798 97.4625 37.8306 97.4625 39.6303C97.4625 41.4299 96.5029 42.9452 94.5546 42.9452C93.902 42.9452 92.965 42.6997 92.4965 41.9469H92.4707V42.7966H91.4238V34.002ZM94.3834 37.2071C92.9779 37.2071 92.4351 38.4154 92.4351 39.6109C92.4351 40.8677 93.0005 42.0244 94.4415 42.0244C95.8729 42.0244 96.351 40.8063 96.351 39.5592C96.3543 38.3637 95.7371 37.2071 94.3834 37.2071Z" fill="#60269E"/>
<path d="M99.3105 34.002H98.2637V42.7998H99.3105V34.002Z" fill="#60269E"/>
<path d="M101.553 35.2846H100.506V34.002H101.553V35.2846ZM100.506 36.4284H101.553V42.7998H100.506V36.4284Z" fill="#60269E"/>
<path d="M107.013 38.4736C106.851 37.6723 106.299 37.2038 105.436 37.2038C103.921 37.2038 103.452 38.3993 103.452 39.6917C103.452 40.8613 103.982 42.0212 105.313 42.0212C106.325 42.0212 106.926 41.4299 107.061 40.4671H108.134C107.901 42.0212 106.926 42.9452 105.323 42.9452C103.375 42.9452 102.341 41.5882 102.341 39.6917C102.341 37.7822 103.326 36.2798 105.346 36.2798C106.787 36.2798 107.947 36.9583 108.095 38.4736H107.013Z" fill="#60269E"/>
<path d="M114.457 42.774C114.273 42.8838 114.037 42.9452 113.704 42.9452C113.161 42.9452 112.816 42.648 112.816 41.9598C112.237 42.6383 111.462 42.9452 110.573 42.9452C109.413 42.9452 108.467 42.4283 108.467 41.1585C108.467 39.7175 109.539 39.4073 110.622 39.2006C111.782 38.9776 112.767 39.0519 112.767 38.2636C112.767 37.3525 112.014 37.2038 111.349 37.2038C110.46 37.2038 109.808 37.4752 109.759 38.4122H108.712C108.774 36.8355 109.995 36.2798 111.41 36.2798C112.557 36.2798 113.801 36.5383 113.801 38.031V41.3071C113.801 41.8015 113.801 42.0212 114.134 42.0212C114.221 42.0212 114.318 42.0083 114.454 41.9598V42.774H114.457ZM112.754 39.5107C112.347 39.808 111.559 39.8177 110.858 39.9437C110.166 40.0665 109.575 40.312 109.575 41.0907C109.575 41.7821 110.166 42.0276 110.806 42.0276C112.186 42.0276 112.754 41.165 112.754 40.5866V39.5107Z" fill="#60269E"/>
<path d="M115.578 40.7904C115.617 41.7274 116.428 42.0246 117.291 42.0246C117.943 42.0246 118.832 41.876 118.832 41.0747C118.832 40.2605 117.798 40.128 116.748 39.8922C115.714 39.6563 114.664 39.3138 114.664 38.0925C114.664 36.8098 115.934 36.2832 117.042 36.2832C118.447 36.2832 119.569 36.7258 119.656 38.2799H118.609C118.535 37.4657 117.821 37.2073 117.129 37.2073C116.499 37.2073 115.772 37.3785 115.772 38.0215C115.772 38.7743 116.88 38.897 117.853 39.1297C118.9 39.3623 119.937 39.708 119.937 40.9422C119.937 42.4575 118.519 42.9519 117.226 42.9519C115.798 42.9519 114.59 42.3735 114.528 40.7936H115.578V40.7904Z" fill="#60269E"/>
<path d="M129.229 42.7998H128.182V41.9372H128.156C127.811 42.6383 127 42.9484 126.124 42.9484C124.166 42.9484 123.19 41.3944 123.19 39.598C123.19 37.7983 124.15 36.283 126.098 36.283C126.751 36.283 127.688 36.5286 128.156 37.2814H128.182V34.002H129.229V42.7998ZM126.273 42.0244C127.678 42.0244 128.221 40.816 128.221 39.6206C128.221 38.3637 127.656 37.2071 126.211 37.2071C124.783 37.2071 124.302 38.4251 124.302 39.6723C124.302 40.8645 124.919 42.0244 126.273 42.0244Z" fill="#60269E"/>
<path d="M135.788 40.7807C135.504 42.1861 134.492 42.9486 133.064 42.9486C131.032 42.9486 130.069 41.5432 130.008 39.5982C130.008 37.6887 131.265 36.2832 133.003 36.2832C135.258 36.2832 135.946 38.3898 135.885 39.9309H131.116C131.08 41.0392 131.707 42.0246 133.1 42.0246C133.962 42.0246 134.567 41.6046 134.751 40.7807H135.788ZM134.777 39.0037C134.728 38.0053 133.975 37.204 132.942 37.204C131.846 37.204 131.194 38.0311 131.119 39.0037H134.777Z" fill="#60269E"/>
<path d="M77.7109 47.2036H80.9031C81.6785 47.2036 82.7028 47.2036 83.2326 47.5235C83.811 47.8692 84.2665 48.496 84.2665 49.3587C84.2665 50.2956 83.7722 50.9967 82.9612 51.3295V51.3521C84.0436 51.5751 84.6381 52.3861 84.6381 53.4717C84.6381 54.7673 83.714 55.9983 81.9629 55.9983H77.7109V47.2036ZM78.8805 50.9871H81.2197C82.5509 50.9871 83.0937 50.5056 83.0937 49.5816C83.0937 48.3635 82.231 48.1891 81.2197 48.1891H78.8805V50.9871ZM78.8805 55.016H81.8142C82.8255 55.016 83.4653 54.3989 83.4653 53.4393C83.4653 52.2924 82.5412 51.9725 81.5558 51.9725H78.8838V55.016H78.8805Z" fill="#60269E"/>
<path d="M88.2346 49.4849C90.2539 49.4849 91.3266 50.9517 91.3266 52.8257C91.3266 54.6867 90.2539 56.1535 88.2346 56.1535C86.2153 56.1535 85.1426 54.6867 85.1426 52.8257C85.1394 50.9517 86.212 49.4849 88.2346 49.4849ZM88.2346 55.2263C89.3299 55.2263 90.2184 54.3636 90.2184 52.8224C90.2184 51.2683 89.3299 50.4057 88.2346 50.4057C87.1393 50.4057 86.2508 51.2683 86.2508 52.8224C86.2508 54.3636 87.1361 55.2263 88.2346 55.2263Z" fill="#60269E"/>
<path d="M97.5623 55.4588C97.5623 57.5298 96.6124 58.5895 94.6059 58.5895C93.4105 58.5895 92.0309 58.1081 91.9695 56.7156H93.0163C93.0648 57.4781 93.9759 57.7495 94.6673 57.7495C96.034 57.7495 96.5768 56.7641 96.5768 55.3328V54.9127H96.551C96.2053 55.6882 95.3684 56.0694 94.5672 56.0694C92.6706 56.0694 91.7207 54.5799 91.7207 52.8417C91.7207 51.3393 92.4606 49.4783 94.6641 49.4783C95.4654 49.4783 96.1794 49.8337 96.5607 50.538H96.5736V49.6269H97.559V55.4588H97.5623ZM96.5251 52.6866C96.5251 51.5655 96.0308 50.4088 94.7126 50.4088C93.3685 50.4088 92.8289 51.5041 92.8289 52.7254C92.8289 53.8724 93.2489 55.1518 94.6286 55.1518C96.0082 55.1518 96.5251 53.8821 96.5251 52.6866Z" fill="#60269E"/>
<path d="M101.394 49.4849C103.413 49.4849 104.486 50.9517 104.486 52.8257C104.486 54.6867 103.413 56.1535 101.394 56.1535C99.3744 56.1535 98.3018 54.6867 98.3018 52.8257C98.3018 50.9517 99.3744 49.4849 101.394 49.4849ZM101.394 55.2263C102.489 55.2263 103.378 54.3636 103.378 52.8224C103.378 51.2683 102.489 50.4057 101.394 50.4057C100.298 50.4057 99.41 51.2683 99.41 52.8224C99.41 54.3636 100.298 55.2263 101.394 55.2263Z" fill="#60269E"/>
<path d="M106.68 49.6302H107.95V50.5543H106.68V54.509C106.68 54.9904 106.816 55.0744 107.469 55.0744H107.95V55.9985H107.149C106.063 55.9985 105.633 55.7755 105.633 54.6059V50.5511H104.548V49.627H105.633V47.7175H106.68V49.6302Z" fill="#60269E"/>
<path d="M114.259 55.9789C114.075 56.0888 113.839 56.1502 113.507 56.1502C112.964 56.1502 112.621 55.8529 112.621 55.1647C112.043 55.8432 111.264 56.1502 110.379 56.1502C109.222 56.1502 108.272 55.6332 108.272 54.3634C108.272 52.9224 109.345 52.6155 110.427 52.4055C111.584 52.1826 112.573 52.2569 112.573 51.4685C112.573 50.5574 111.82 50.4088 111.158 50.4088C110.269 50.4088 109.617 50.6802 109.568 51.6171H108.521C108.583 50.0404 109.804 49.4847 111.219 49.4847C112.366 49.4847 113.61 49.7432 113.61 51.2359V54.5121C113.61 55.0064 113.61 55.2261 113.943 55.2261C114.03 55.2261 114.127 55.2132 114.263 55.1647V55.9789H114.259ZM112.557 52.7124C112.15 53.0097 111.361 53.0194 110.66 53.1421C109.969 53.2649 109.377 53.5105 109.377 54.2891C109.377 54.9806 109.969 55.2261 110.608 55.2261C111.988 55.2261 112.557 54.3634 112.557 53.7851V52.7124ZM111.448 46.9937H112.793L111.177 48.7545H110.389L111.448 46.9937Z" fill="#60269E"/>
<path d="M1.94229 48.9226C1.94229 47.1423 1.94229 46.816 1.91968 46.4412C1.89706 46.0438 1.80336 45.8564 1.41565 45.7756C1.32195 45.753 1.12486 45.7401 0.960084 45.7401C0.830846 45.7401 0.759766 45.7175 0.759766 45.6335C0.759766 45.5495 0.840539 45.5269 1.01824 45.5269C1.63858 45.5269 2.37524 45.5624 2.6111 45.5624C3.18298 45.5624 3.64177 45.5269 4.03918 45.5269C6.15868 45.5269 6.53024 46.6609 6.53024 47.2813C6.53024 48.2409 5.98098 48.816 5.33802 49.3297C6.29761 49.656 7.46721 50.4896 7.46721 51.8563C7.46721 53.1099 6.49793 54.4087 4.34289 54.4087C4.20396 54.4087 3.86148 54.3861 3.52223 54.3732C3.17005 54.3506 2.82111 54.3377 2.64664 54.3377C2.5174 54.3377 2.25893 54.3376 1.97783 54.3506C1.70966 54.3506 1.40596 54.3732 1.1701 54.3732C1.01824 54.3732 0.934237 54.3377 0.934237 54.2569C0.934237 54.1987 0.982701 54.1632 1.12163 54.1632C1.2961 54.1632 1.43826 54.1406 1.54166 54.1179C1.77428 54.0727 1.83567 53.8142 1.8809 53.475C1.93906 52.9839 1.93906 52.0598 1.93906 50.9839V48.9226H1.94229ZM3.34452 49.1229C3.34452 49.2166 3.38006 49.2392 3.4253 49.2521C3.53192 49.2748 3.70639 49.2877 3.97456 49.2877C4.35904 49.2877 4.61752 49.2424 4.81784 49.0647C5.12155 48.8192 5.29602 48.3992 5.29602 47.8241C5.29602 47.0389 4.84045 46.0115 3.8324 46.0115C3.66762 46.0115 3.56423 46.0115 3.44791 46.0341C3.37037 46.0567 3.34452 46.102 3.34452 46.2312V49.1229ZM4.88892 50.0599C4.64336 49.8854 4.3752 49.8046 3.9164 49.7788C3.70639 49.7659 3.59008 49.7659 3.41237 49.7659C3.36391 49.7659 3.34129 49.7885 3.34129 49.8466V52.6188C3.34129 53.391 3.37683 53.5913 3.75162 53.7432C4.06826 53.8724 4.33642 53.8821 4.60459 53.8821C5.13124 53.8821 6.01975 53.601 6.01975 52.3829C6.02621 51.6592 5.78066 50.6802 4.88892 50.0599Z" fill="#60269E"/>
<path d="M9.04431 49.7303C9.04431 48.2215 9.04431 47.9404 9.03139 47.6238C9.00877 47.2845 8.90215 47.1682 8.67922 47.0971C8.5629 47.0616 8.43366 47.0519 8.30443 47.0519C8.20104 47.0519 8.13965 47.0293 8.13965 46.9356C8.13965 46.8774 8.22042 46.8516 8.3852 46.8516C8.77291 46.8516 9.47403 46.8774 9.76482 46.8774C10.0233 46.8774 10.6889 46.8516 11.0863 46.8516C11.2155 46.8516 11.2963 46.8774 11.2963 46.9356C11.2963 47.0293 11.2381 47.0519 11.1315 47.0519C11.0281 47.0519 10.9441 47.0648 10.8278 47.0874C10.5467 47.1327 10.4659 47.2748 10.4433 47.627C10.4207 47.9436 10.4207 48.2247 10.4207 49.7336V51.488C10.4207 52.4476 10.4207 53.2424 10.4659 53.6656C10.5015 53.9338 10.5726 54.0857 10.8763 54.1341C11.0184 54.1567 11.2511 54.1697 11.4029 54.1697C11.5192 54.1697 11.5677 54.2278 11.5677 54.2763C11.5677 54.3474 11.4869 54.3829 11.3674 54.3829C10.6889 54.3829 9.98775 54.3474 9.70666 54.3474C9.47403 54.3474 8.76968 54.3829 8.36258 54.3829C8.23335 54.3829 8.16226 54.3474 8.16226 54.2763C8.16226 54.2278 8.19781 54.1697 8.32704 54.1697C8.4789 54.1697 8.59521 54.16 8.68891 54.1341C8.89892 54.0857 8.95708 53.9467 8.99262 53.6527C9.03785 53.2424 9.03785 52.4476 9.03785 51.488V49.7303H9.04431Z" fill="#60269E"/>
<path d="M13.1051 49.7304C13.1051 48.2215 13.1051 47.9405 13.0922 47.6238C13.0696 47.2846 12.9759 47.1779 12.6463 47.0843C12.5656 47.0616 12.3878 47.0487 12.236 47.0487C12.1294 47.0487 12.0615 47.0132 12.0615 46.9421C12.0615 46.871 12.1423 46.8484 12.2942 46.8484C12.8337 46.8484 13.4864 46.8742 13.6867 46.8742C14.2004 46.8742 14.8789 46.8484 15.2311 46.8484C17.0921 46.8484 17.4184 47.808 17.4184 48.3346C17.4184 49.1068 16.8466 49.7045 16.2618 50.0761C17.105 50.3443 18.1583 51.0583 18.1583 52.2279C18.1583 53.2941 17.315 54.3927 15.4217 54.3927C15.3054 54.3927 14.9532 54.3797 14.601 54.3571C14.2489 54.3442 13.887 54.3345 13.7222 54.3345C13.6059 54.3345 13.383 54.3474 13.1374 54.3474C12.8919 54.3603 12.6334 54.37 12.4234 54.37C12.2942 54.37 12.2231 54.3345 12.2231 54.2634C12.2231 54.2182 12.2586 54.1568 12.3878 54.1568C12.5397 54.1568 12.656 54.1471 12.7497 54.1213C12.9597 54.0728 13.0179 53.8854 13.0534 53.5946C13.0987 53.1746 13.0987 52.3895 13.0987 51.4751V49.7304H13.1051ZM14.4363 49.8952C14.4363 49.9759 14.4718 49.9889 14.5074 50.0018C14.601 50.0244 14.7529 50.0373 14.9855 50.0373C15.3248 50.0373 15.6188 50.0018 15.7933 49.8629C16.0614 49.6529 16.2618 49.291 16.2618 48.8096C16.2618 48.1408 15.8643 47.3136 14.9758 47.3136C14.8369 47.3136 14.6366 47.3136 14.53 47.3363C14.4589 47.3492 14.4363 47.3944 14.4363 47.501V49.8952ZM14.4363 52.8192C14.4363 53.4751 14.4718 53.6754 14.7981 53.8014C15.0663 53.908 15.3022 53.9177 15.5348 53.9177C16.0841 53.9177 16.7981 53.614 16.7981 52.5122C16.7981 52.0567 16.5978 51.2716 15.8256 50.7449C15.6156 50.5931 15.3345 50.4864 14.9371 50.4864H14.4912C14.4557 50.4864 14.433 50.4994 14.433 50.5575V52.8192H14.4363Z" fill="#60269E"/>
<path d="M20.8046 51.4847C20.8046 52.761 20.8046 53.3942 21.0275 53.5784C21.202 53.7302 21.5994 53.7884 22.3974 53.7884C22.9467 53.7884 23.3441 53.7755 23.6026 53.5073C23.7318 53.3781 23.8352 53.097 23.8611 52.9096C23.874 52.8159 23.8966 52.7577 23.9774 52.7577C24.0485 52.7577 24.0711 52.8611 24.0711 52.9774C24.0711 53.0937 24 53.8336 23.9192 54.1244C23.8481 54.3473 23.8029 54.3926 23.2633 54.3926C22.5267 54.3926 21.9289 54.3797 21.4152 54.357C20.9015 54.3441 20.4686 54.3344 20.0453 54.3344C19.929 54.3344 19.7061 54.3473 19.4605 54.3473C19.215 54.3603 18.9565 54.37 18.7465 54.37C18.6172 54.37 18.5461 54.3344 18.5461 54.2633C18.5461 54.2149 18.5817 54.1567 18.7109 54.1567C18.8628 54.1567 18.9791 54.147 19.0728 54.1212C19.2828 54.0727 19.341 53.8886 19.3765 53.5945C19.4217 53.1745 19.4217 52.3894 19.4217 51.475V49.7206C19.4217 48.2118 19.4217 47.9307 19.4088 47.6141C19.3862 47.2748 19.2925 47.1682 18.9629 47.0745C18.8822 47.0519 18.7529 47.0389 18.6237 47.0389C18.5074 47.0389 18.4492 47.0034 18.4492 46.9323C18.4492 46.8612 18.5203 46.8386 18.6722 46.8386C19.1503 46.8386 19.8062 46.8645 20.0873 46.8645C20.3329 46.8645 21.1761 46.8386 21.5735 46.8386C21.7254 46.8386 21.7965 46.8645 21.7965 46.9323C21.7965 47.0034 21.7383 47.0389 21.6091 47.0389C21.4928 47.0389 21.328 47.0519 21.2117 47.0745C20.9306 47.123 20.8498 47.2619 20.824 47.6141C20.8013 47.9307 20.8013 48.2118 20.8013 49.7206V51.4847H20.8046Z" fill="#60269E"/>
<path d="M23.8223 50.6092C23.8223 48.9129 25.0145 46.7126 28.1388 46.7126C30.7365 46.7126 32.352 48.1504 32.352 50.4347C32.352 52.7157 30.6913 54.5057 28.0354 54.5057C25.0403 54.5057 23.8223 52.3765 23.8223 50.6092ZM30.8205 50.7966C30.8205 48.5963 29.499 47.2393 27.8383 47.2393C26.6913 47.2393 25.344 47.8467 25.344 50.3055C25.344 52.3539 26.5136 53.9661 28.4554 53.9661C29.1824 53.9661 30.8205 53.6269 30.8205 50.7966Z" fill="#60269E"/>
<path d="M33.2567 48.9225C33.2567 47.1455 33.2567 46.8159 33.2341 46.4412C33.2115 46.0438 33.1178 45.8564 32.7301 45.7756C32.6364 45.7497 32.4361 45.74 32.2745 45.74C32.1453 45.74 32.0742 45.7174 32.0742 45.6367C32.0742 45.5526 32.155 45.53 32.3327 45.53C32.953 45.53 33.6897 45.5656 33.9352 45.5656C34.3327 45.5656 35.2212 45.53 35.5863 45.53C36.3229 45.53 37.108 45.6011 37.7381 46.0341C38.0644 46.257 38.5329 46.8515 38.5329 47.6366C38.5329 48.5025 38.171 49.2973 36.9885 50.2569C38.0289 51.5687 38.8366 52.609 39.528 53.3328C40.1839 54.0113 40.6653 54.092 40.8398 54.1276C40.969 54.1502 41.0756 54.1631 41.1661 54.1631C41.2598 54.1631 41.305 54.1987 41.305 54.2568C41.305 54.3505 41.2243 54.3731 41.0821 54.3731H39.9707C39.3148 54.3731 39.024 54.315 38.717 54.1502C38.213 53.8788 37.7704 53.3295 37.1145 52.4313C36.646 51.7884 36.1097 50.9903 35.9546 50.8159C35.8964 50.7448 35.8253 50.7351 35.7446 50.7351L34.7268 50.7125C34.6687 50.7125 34.6331 50.7351 34.6331 50.8062V50.9709C34.6331 52.0598 34.6331 52.9838 34.6913 53.4749C34.7268 53.8142 34.7979 54.0727 35.1469 54.1179C35.3213 54.1405 35.5798 54.1631 35.7187 54.1631C35.8124 54.1631 35.8577 54.1987 35.8577 54.2568C35.8577 54.3376 35.7769 54.3731 35.625 54.3731C34.9465 54.3731 34.0806 54.3376 33.9062 54.3376C33.6832 54.3376 32.9466 54.3731 32.4781 54.3731C32.3262 54.3731 32.2455 54.3376 32.2455 54.2568C32.2455 54.1987 32.2907 54.1631 32.4329 54.1631C32.6073 54.1631 32.7495 54.1405 32.8529 54.1179C33.0887 54.0694 33.1469 53.8142 33.1921 53.4749C33.2503 52.9838 33.2503 52.0598 33.2503 50.9806V48.9225H33.2567ZM34.6396 49.8466C34.6396 49.9758 34.6622 50.021 34.7462 50.0566C34.9918 50.1374 35.3439 50.1729 35.6347 50.1729C36.1032 50.1729 36.2551 50.1277 36.4651 49.9726C36.8173 49.7173 37.1565 49.1778 37.1565 48.2182C37.1565 46.5575 36.058 46.0761 35.3666 46.0761C35.0758 46.0761 34.8625 46.089 34.7462 46.1213C34.6654 46.1439 34.6396 46.1924 34.6396 46.2861V49.8466Z" fill="#60269E"/>
<path d="M41.4603 49.7303C41.4603 48.2214 41.4603 47.9404 41.4506 47.6237C41.428 47.2845 41.3343 47.1779 41.0047 47.0842C40.9239 47.0615 40.7462 47.0486 40.5944 47.0486C40.4878 47.0486 40.4199 47.0131 40.4199 46.942C40.4199 46.8709 40.5039 46.8483 40.6526 46.8483C41.1921 46.8483 41.848 46.8741 42.1388 46.8741C42.4683 46.8741 44.7494 46.8871 44.9465 46.8741C45.1339 46.8612 45.2987 46.8289 45.3794 46.816C45.4376 46.8031 45.4957 46.7708 45.5442 46.7708C45.6024 46.7708 45.6121 46.816 45.6121 46.8644C45.6121 46.9355 45.5539 47.0518 45.5313 47.5074C45.5184 47.614 45.4957 48.047 45.4731 48.1633C45.4602 48.2085 45.4376 48.3281 45.3568 48.3281C45.2857 48.3281 45.2728 48.2828 45.2728 48.1988C45.2728 48.1277 45.2599 47.9533 45.2017 47.837C45.121 47.6625 45.0369 47.5203 44.5232 47.4751C44.3488 47.4525 43.1178 47.4299 42.9078 47.4299C42.8625 47.4299 42.8367 47.4654 42.8367 47.5236V49.9791C42.8367 50.0372 42.8496 50.0857 42.9078 50.0857C43.1436 50.0857 44.4748 50.0857 44.7106 50.0631C44.9562 50.0405 45.0951 50.0049 45.2017 49.9112C45.2825 49.8402 45.318 49.782 45.3665 49.782C45.415 49.782 45.4473 49.8272 45.4473 49.8854C45.4473 49.9435 45.4247 50.1083 45.3665 50.6091C45.3439 50.8094 45.3213 51.2068 45.3213 51.2779C45.3213 51.3587 45.3083 51.5009 45.2146 51.5009C45.1436 51.5009 45.121 51.4653 45.121 51.4201C45.108 51.3135 45.108 51.1875 45.0854 51.0582C45.0273 50.8611 44.898 50.7093 44.5103 50.6737C44.3229 50.6511 43.1533 50.6285 42.8948 50.6285C42.8464 50.6285 42.8367 50.6737 42.8367 50.7351V51.5299C42.8367 51.8692 42.8237 52.7125 42.8367 53.0032C42.8593 53.6817 43.1759 53.8336 44.2292 53.8336C44.4974 53.8336 44.9303 53.8207 45.2017 53.7044C45.4602 53.588 45.5765 53.378 45.6476 52.9677C45.6702 52.8611 45.6928 52.8159 45.7639 52.8159C45.8479 52.8159 45.8576 52.9451 45.8576 53.0517C45.8576 53.2747 45.7768 53.9531 45.7187 54.1502C45.6476 54.4087 45.5539 54.4087 45.1694 54.4087C44.3972 54.4087 43.7769 54.3958 43.2728 54.3732C42.7688 54.3602 42.3843 54.3506 42.0806 54.3506C41.9643 54.3506 41.7414 54.3635 41.4958 54.3635C41.2503 54.3764 40.995 54.3861 40.7818 54.3861C40.6526 54.3861 40.5815 54.3506 40.5815 54.2795C40.5815 54.231 40.617 54.1728 40.7462 54.1728C40.8981 54.1728 41.0144 54.1632 41.1081 54.1373C41.3181 54.0889 41.3763 53.9047 41.4118 53.6107C41.4571 53.1906 41.4571 52.4055 41.4571 51.4912V49.7303H41.4603Z" fill="#60269E"/>
<path d="M46.9586 49.7304C46.9586 48.2215 46.9586 47.9405 46.9457 47.6238C46.9231 47.2846 46.8294 47.1779 46.4998 47.0843C46.4191 47.0616 46.2414 47.0487 46.0895 47.0487C45.9829 47.0487 45.915 47.0132 45.915 46.9421C45.915 46.871 45.9958 46.8484 46.1477 46.8484C46.6872 46.8484 47.3399 46.8742 47.6339 46.8742C47.9505 46.8742 48.6872 46.8484 49.3075 46.8484C50.5967 46.8484 52.3285 46.8484 53.4496 47.9857C53.9666 48.4994 54.4221 49.333 54.4221 50.5123C54.4221 51.7659 53.8826 52.7126 53.2978 53.2844C52.8293 53.7529 51.7404 54.454 49.8471 54.454C49.4723 54.454 49.0297 54.4185 48.6193 54.3959C48.209 54.3603 47.8342 54.3377 47.5757 54.3377C47.4594 54.3377 47.2365 54.3506 46.9909 54.3506C46.7454 54.3636 46.4869 54.3733 46.2769 54.3733C46.1477 54.3733 46.0766 54.3377 46.0766 54.2666C46.0766 54.2214 46.1121 54.16 46.2414 54.16C46.3932 54.16 46.5095 54.1503 46.6032 54.1245C46.8132 54.076 46.8714 53.8886 46.9069 53.5978C46.9522 53.1778 46.9522 52.3927 46.9522 51.4783V49.7304H46.9586ZM48.3415 50.8289C48.3415 51.8822 48.3544 52.6447 48.3641 52.8418C48.377 53.0873 48.3996 53.4395 48.4804 53.5429C48.6097 53.7303 49.02 53.9403 49.8245 53.9403C50.7615 53.9403 51.4497 53.7755 52.07 53.2618C52.7356 52.7126 52.9488 51.8241 52.9488 50.7934C52.9488 49.5301 52.4448 48.7126 51.9892 48.312C51.0426 47.4687 49.9182 47.3653 49.1104 47.3653C48.9004 47.3653 48.5612 47.388 48.4772 47.4364C48.3835 47.472 48.3479 47.5172 48.3479 47.6367C48.335 47.976 48.335 48.7934 48.335 49.5785V50.8289H48.3415Z" fill="#60269E"/>
<path d="M33.3406 27.3755H33.3568C33.3891 27.3755 33.4214 27.3755 33.4505 27.3723L33.4796 27.5176H34.0321L34.0773 27.3981L34.0838 27.3723C34.0902 27.3367 34.1096 27.2656 34.1096 27.1622C34.1128 27.0169 34.0741 26.7293 33.8027 26.4385C33.5183 26.1283 33.1339 26.0637 32.8689 26.0637C32.8528 26.0637 32.7235 26.067 32.6686 26.0799L32.5458 26.096L32.5135 26.2188C32.5071 26.2511 32.4941 26.3157 32.4941 26.4062C32.4941 26.5613 32.5329 26.8585 32.7979 27.1267C33.0111 27.3432 33.2276 27.3755 33.3406 27.3755Z" fill="#60269E"/>
<path d="M30.3781 29.4045L30.6172 29.6403C30.6237 29.6468 30.6366 29.6565 30.656 29.6759C30.6237 29.8697 30.6043 30.1153 30.6043 30.3834V30.4577C30.6172 31.4367 30.95 32.4997 31.2763 33.5271C31.5574 34.4189 31.8223 35.2622 31.8191 35.9116C31.8191 36.2541 31.7448 36.519 31.5962 36.7193L31.2311 37.2072L31.803 37.0036C31.803 37.0036 31.9096 36.9681 32.0194 36.9293C32.055 36.9132 32.0905 36.9003 32.1261 36.8873L32.1584 36.8744C32.1681 36.8712 32.1778 36.8679 32.1874 36.8647L32.1939 36.8615L32.2488 36.8421L32.2521 36.8356L32.2553 36.8324L32.2779 36.8195L32.2811 36.8162C32.2941 36.8066 32.307 36.7936 32.3167 36.7678C32.5719 36.3284 32.6979 35.889 32.6947 35.4269C32.6947 34.6321 32.3555 33.7436 31.761 32.4674C31.3474 31.5886 31.2602 30.8228 31.2602 30.3414C31.2602 30.251 31.2634 30.1734 31.2699 30.1088C31.4508 30.2186 31.6253 30.3188 31.8094 30.4125C32.4007 30.7065 32.4233 31.6823 32.4201 31.8761C32.4201 31.9957 32.4104 32.07 32.4104 32.07L32.3975 32.2348L33.0404 32.3802L33.076 32.1928C33.105 32.1023 33.1277 31.8374 33.1277 31.6338C33.1277 31.4303 33.1115 31.2396 33.0856 31.0555C32.9855 30.4933 32.6785 29.9925 32.5849 29.8439L32.5299 29.7631H32.433C32.4298 29.7631 32.1196 29.7534 31.7448 29.5208C31.2279 29.1977 30.866 28.6258 30.6689 27.831C30.6204 27.6242 30.5946 27.4174 30.5946 27.2139C30.5914 26.4772 30.908 25.8569 31.1729 25.4627C31.412 25.1008 31.6543 24.8585 31.748 24.7713L31.9516 24.5871L31.2634 24.2446L31.1729 24.3254L31.16 24.3351C30.9241 24.5548 29.7384 25.7373 29.6673 27.4013C29.6641 27.4497 29.6641 27.495 29.6641 27.5402C29.6608 28.8132 30.3555 29.3818 30.3781 29.4045Z" fill="#60269E"/>
<path d="M47.0106 11.883C46.807 11.883 46.61 11.9444 46.4419 12.0607V12.0575L46.3773 12.1059C45.5599 12.7457 44.5131 13.5631 43.3629 14.4677C43.4566 14.2157 43.5729 13.912 43.6956 13.5954L44.0737 12.6067H44.0769L44.0963 12.5615C44.1415 12.4452 44.1641 12.3224 44.1641 12.1964C44.1641 11.6439 43.7118 11.1916 43.1593 11.1916C42.9751 11.1916 42.7942 11.2433 42.6359 11.337L42.6327 11.3273L42.5939 11.3563C41.9832 11.7344 41.3726 12.1382 40.7684 12.5583L41.4017 10.2772L41.4146 10.2191H41.4114C41.4275 10.1544 41.4307 10.0866 41.4307 10.0155C41.4307 9.46301 40.9816 9.01068 40.4259 9.01068C40.2224 9.01068 40.0285 9.06884 39.8637 9.18192L39.8282 9.20777C39.2014 9.59871 38.5843 10.0349 37.9866 10.4969L38.3032 8.26756L38.3064 8.20294H38.3032C38.3064 8.17386 38.3097 8.14478 38.3097 8.11571C38.3097 7.56321 37.8573 7.11088 37.3048 7.11088C37.1336 7.11088 36.9656 7.15288 36.817 7.23689L36.8137 7.23366L36.7653 7.26274C35.1401 8.2611 32.8429 10.1189 31.1273 13.3111C29.4181 16.4936 28.6847 19.7923 28.3713 22.012C28.1031 22.1122 27.8511 22.2188 27.6152 22.3319C27.1726 20.2479 26.1322 16.332 24.0902 13.0041C22.226 9.97673 19.8125 8.18356 18.1162 7.21427L18.0936 7.20135C17.9547 7.1335 17.7996 7.09473 17.6413 7.09473C17.0888 7.09473 16.6365 7.54706 16.6365 8.09632C16.6365 8.16417 16.6429 8.22556 16.6526 8.28048L17.0597 10.3935C16.5201 10.0058 15.9644 9.64394 15.4152 9.31762L15.3764 9.29823C15.2278 9.21746 15.0598 9.17223 14.8885 9.17223C14.336 9.17223 13.8869 9.62133 13.8869 10.1771C13.8869 10.2449 13.8934 10.316 13.9063 10.3871L14.4685 12.6972C13.9257 12.3353 13.3732 11.9928 12.8336 11.6665C12.6882 11.589 12.5235 11.5437 12.3554 11.5437C11.7997 11.5437 11.3474 11.9961 11.3474 12.5486C11.3474 12.652 11.3635 12.7521 11.3926 12.849C11.6059 13.5792 11.8999 14.5744 12.0356 15.0299C9.08896 12.5324 8.80787 12.2901 8.78848 12.2707C8.61078 12.1253 8.38461 12.0445 8.15521 12.0445C7.59949 12.0445 7.15039 12.4936 7.15039 13.0494C7.15039 13.1237 7.15685 13.198 7.17301 13.2691L7.2344 13.5243C7.29578 13.786 7.37333 14.122 7.50903 14.7004C9.06634 21.2786 12.1131 33.9245 12.1422 34.0505C12.1971 34.2928 12.3425 34.5061 12.5461 34.6515L27.1273 44.0923C27.2857 44.1925 27.4666 44.2474 27.6508 44.2474C27.8511 44.2474 28.0385 44.186 28.2032 44.0729L42.917 34.6741C43.1302 34.5384 43.2918 34.3252 43.3564 34.0796L43.3596 34.0828L43.8087 32.0506C44.3031 29.8309 45.0882 26.3092 45.8733 22.7681L45.9121 22.5936C46.694 19.0525 47.5017 15.3886 47.9831 13.156C48.009 13.0655 48.0219 12.9686 48.0219 12.8781C48.0186 12.3353 47.5663 11.883 47.0106 11.883ZM28.0482 31.9633V31.9052C28.0805 30.9327 28.1192 30.2671 28.158 29.9763C28.2356 29.44 28.3616 28.9682 28.5328 28.5644L28.5877 28.4222L27.9738 28.0054L27.8834 28.1993C27.7606 28.4545 27.6314 28.7485 27.5021 29.0716C27.36 29.4335 27.2566 30.28 27.1629 31.8987L27.1564 31.9956L27.1693 32.0053C27.1823 32.3123 27.1855 33.6563 27.1855 35.3978C27.1855 37.96 27.1758 41.3848 27.1693 43.0843L13.2504 33.666L8.82402 14.1479L23.6121 25.8407C23.0305 26.7098 22.5523 27.6791 22.184 28.7227L22.1388 28.8552L22.73 29.2784L22.814 29.0458C23.1307 28.1379 23.6218 27.2009 24.2421 26.3382L25.2049 27.104L25.3148 26.9392C25.3729 26.8552 25.4376 26.7712 25.4957 26.6872L25.6411 26.4933L25.4505 26.3544C25.3762 26.3027 25.1306 26.1024 24.7623 25.7955L24.6977 25.7438C24.814 25.6016 24.94 25.4562 25.0725 25.314C25.3923 25.7825 25.6088 26.1185 25.6573 26.1929C25.6702 26.2187 25.6831 26.2284 25.6896 26.2349L25.7316 26.1993L25.6993 26.2478C25.7219 26.2736 25.751 26.2866 25.8253 26.2962C25.835 26.293 25.864 26.293 25.8867 26.2833L26.0224 26.1444C26.0902 26.0507 26.2162 25.8859 26.2388 25.8504L26.2938 25.7534L26.2388 25.663C26.1677 25.5241 25.7639 24.8779 25.6573 24.7099C25.7671 24.6097 25.877 24.5095 25.9868 24.4158C26.1807 24.8617 26.3099 25.1719 26.3648 25.3108C26.3778 25.3463 26.3875 25.369 26.3971 25.3819L26.4973 25.6404L27.108 25.0394L27.066 24.9134H27.0627C27.0595 24.9005 27.053 24.8876 27.0466 24.8649C26.9981 24.7325 26.8656 24.3771 26.6589 23.873C26.7784 23.789 26.8786 23.718 26.9755 23.6533C27.1273 24.2963 27.192 24.6549 27.192 24.6549L27.2469 24.9716L27.9577 24.3738L27.9448 24.2801C27.9448 24.2801 27.8898 23.8601 27.7638 23.1848C27.9286 23.0976 28.0837 23.0233 28.2388 22.9554C28.1677 23.6146 28.1548 23.999 28.1548 23.999L28.1451 24.3092L28.4262 24.1606C28.4973 24.1283 28.5522 24.096 28.6103 24.0669C28.6943 24.0184 28.7687 23.9797 28.8721 23.9377L28.9657 23.8924L28.9787 23.7858C28.9787 23.7858 29.0174 23.3496 29.1402 22.6097C29.3341 22.5516 29.4989 22.5031 29.6572 22.4611C29.4536 23.0491 29.3535 23.4045 29.3535 23.4045L29.2695 23.7018L30.1612 23.5047L30.1935 23.4045C30.1967 23.3981 30.2 23.3884 30.2032 23.3787C30.3486 22.9587 30.5166 22.5387 30.6361 22.2543C30.8009 22.2253 30.9528 22.2059 31.1014 22.1897C30.7654 22.697 30.6491 23.0104 30.6426 23.0168L30.4423 23.4304L30.7718 23.3335C30.8332 23.3302 30.8849 23.3173 30.9334 23.3141C31.0271 23.3012 31.1046 23.2915 31.2274 23.2915L31.3534 23.3012L31.3954 23.2333C31.418 23.201 31.6991 22.7939 32.229 22.1089H32.3421C32.6458 22.1025 32.9204 22.1122 33.1757 22.1283L33.0141 22.4934C32.7977 22.655 32.6296 22.7842 32.5133 22.8682C32.4487 22.9134 32.4002 22.9458 32.3679 22.9684L31.9996 23.3076L32.3001 23.3044C32.3453 23.3367 32.3744 23.3399 32.397 23.3399L32.5004 23.3529C32.6361 23.3722 32.7557 23.3884 32.8881 23.411L32.9657 23.4239L34.5553 22.3157C34.6264 22.3028 34.7007 22.2866 34.7782 22.2802C34.6102 22.4256 34.4164 22.6259 34.2871 22.8521C34.0125 23.3205 34.006 23.5984 34.006 23.6275C34.006 23.6792 34.0222 23.7244 34.0577 23.7567L34.0739 23.7761L34.1126 23.7955C34.2548 23.8633 34.3647 23.915 34.4519 23.9603L34.6038 24.041L34.6554 23.9635C34.6522 24.0475 34.6522 24.1444 34.6522 24.2575C34.6522 24.9619 34.7395 25.7502 34.9139 26.6C35.0819 27.3948 35.1659 28.1508 35.1659 28.8487C35.1659 29.8729 34.985 30.5352 34.8655 30.8713L34.4842 30.8293C34.4745 30.826 34.4616 30.826 34.439 30.826C34.3873 30.826 33.922 30.8422 33.5634 31.4173C33.25 31.9149 33.1821 32.2897 33.1692 32.4027L33.1628 32.5191L33.2726 32.5837C33.3889 32.6418 33.5408 32.6741 33.6991 32.6741C34.006 32.6741 34.4907 32.5514 35.0593 31.9763C35.6506 31.3753 35.9575 30.3059 35.9607 28.7873C35.9607 28.196 35.9091 27.5692 35.8186 26.9651C35.5827 25.5176 35.4373 24.4611 35.4373 23.6792C35.4373 23.4433 35.4503 23.2398 35.4826 23.075C35.5472 22.6647 35.6829 22.3739 35.7927 22.2059C35.8832 22.054 35.9575 21.9732 35.9834 21.9442C35.9866 21.9409 35.9898 21.9377 35.9963 21.9345L36.2386 21.7051L35.9091 21.6243C35.9091 21.6243 35.8057 21.5952 35.6312 21.5629L46.261 14.1511L42.316 33.6563L28.032 43.1327C28.0385 41.3977 28.0417 37.1038 28.0417 34.3575V32.0893C28.0482 32.0376 28.0482 31.9956 28.0482 31.9633ZM26.3293 23.0621C25.4569 21.0072 23.6605 17.2076 21.2987 14.3579C20.3714 13.24 19.3214 12.1996 18.1744 11.2659L17.693 8.45496C19.0984 9.27885 21.0758 10.7586 22.7365 13.198C24.4101 15.6632 25.5345 18.6454 26.1839 20.7164C26.3971 21.3981 26.5942 22.0928 26.7719 22.7745C26.6395 22.8585 26.5038 22.9458 26.3293 23.0621ZM25.6249 23.5919C25.4828 23.7115 25.3406 23.8343 25.1952 23.9732C23.8544 21.9183 21.2502 18.1833 18.5815 15.8506C17.6607 15.0493 16.7075 14.2933 15.7479 13.5986L14.9951 10.6358C16.3198 11.3951 18.2325 12.7004 20.0709 14.6875C21.5863 16.3352 23.1177 18.6357 24.6169 21.5274C24.9691 22.2123 25.3083 22.9102 25.6249 23.5919ZM23.0725 22.529C23.5959 23.2204 24.1161 23.9312 24.5846 24.5935C24.4198 24.7745 24.255 24.9683 24.0676 25.2106C23.6024 24.8229 23.0467 24.3577 22.4231 23.8343C19.9676 21.7729 16.4394 18.7778 13.5961 16.3708L12.559 13.0171C14.2746 14.0186 15.9321 15.1689 17.4797 16.4289C19.5314 18.0961 21.6541 20.6679 23.0725 22.529ZM34.8008 31.0393C34.6845 31.301 34.5488 31.4981 34.3905 31.6402C34.397 31.5918 34.4034 31.5433 34.4131 31.4884C34.439 31.3721 34.4777 31.2816 34.5294 31.217C34.5456 31.1944 34.5553 31.1847 34.565 31.175L34.8138 31.0296C34.8041 31.0328 34.8041 31.036 34.8008 31.0393ZM41.6828 15.7763C41.224 16.1349 40.7555 16.5 40.287 16.8651C38.4777 18.2738 36.4939 19.815 34.8493 21.088C34.7168 21.1881 34.5908 21.2883 34.4648 21.3852C33.9349 21.3303 33.4083 21.298 32.8978 21.2915C32.9592 21.214 33.0271 21.1364 33.0949 21.0557C34.09 19.8699 35.699 18.0993 37.7313 16.3837C39.2531 15.1042 40.8847 13.9314 42.581 12.8975L41.6828 15.7763ZM39.3856 13.5534C38.4066 14.2868 37.4761 15.0526 36.6231 15.8215C34.3744 17.8602 32.7169 19.9345 31.7121 21.3238C31.4665 21.3367 31.2403 21.3626 31.0206 21.3884C31.1402 21.13 31.2565 20.8812 31.3793 20.6324C32.1192 19.1268 33.3857 16.8877 35.2112 14.765C36.6425 13.1011 38.3064 11.6762 40.1578 10.526L39.3856 13.5534ZM36.9074 11.3725C35.7992 12.3418 34.8073 13.3886 33.9673 14.4807C31.9641 17.0751 30.704 19.7536 29.9997 21.5532C29.7444 21.6049 29.5247 21.6598 29.3179 21.7148C29.389 21.3529 29.4892 20.9329 29.6022 20.4676C30.0546 18.668 30.9237 15.9895 32.4713 13.4338C34.006 10.904 35.8994 9.32408 37.2531 8.43557L36.9074 11.3725Z" fill="#60269E"/>
<path d="M66.5384 0.561768H66.0537V63.4619H66.5384V0.561768Z" fill="#60269E"/>
</svg>
